<svg xmlns="http://www.w3.org/2000/svg" xmlns:xlink="http://www.w3.org/1999/xlink" version="1.1" width="256" height="256" viewBox="0 0 256 256" xml:space="preserve">

<defs>
</defs>
<g style="stroke: none; stroke-width: 0; stroke-dasharray: none; stroke-linecap: butt; stroke-linejoin: miter; stroke-miterlimit: 10; fill: none; fill-rule: nonzero; opacity: 1;" transform="translate(1.4065934065934016 1.4065934065934016) scale(2.81 2.81)" >
	<path d="M 85.307 47.741 h -3.326 c -3.809 -6.143 -10.53 -9.921 -17.803 -9.921 h -3.827 c -6.055 0 -11.502 2.598 -15.33 6.719 c -3.94 -4.245 -9.522 -6.719 -15.371 -6.719 h -3.828 c -7.255 0 -13.991 3.784 -17.8 9.921 H 4.693 C 2.105 47.741 0 49.847 0 52.435 v 8.418 c 0 2.588 2.105 4.693 4.693 4.693 h 0.181 v 17.681 c 0 1.104 0.896 2 2 2 h 34.528 h 41.722 c 1.104 0 2 -0.896 2 -2 V 65.546 h 0.182 c 2.588 0 4.693 -2.105 4.693 -4.693 v -8.418 C 90 49.847 87.895 47.741 85.307 47.741 z M 4 60.853 v -8.418 c 0 -0.382 0.311 -0.693 0.693 -0.693 H 9.8 c 2.208 0 4.004 1.796 4.004 4.004 v 1.796 c 0 2.208 -1.796 4.005 -4.004 4.005 H 4.693 C 4.311 61.546 4 61.234 4 60.853 z M 8.875 65.546 H 9.8 c 4.414 0 8.004 -3.591 8.004 -8.005 v -1.796 c 0 -3.445 -2.193 -6.381 -5.253 -7.506 c 3.188 -4.008 8.064 -6.419 13.27 -6.419 h 3.828 c 4.967 0 9.692 2.21 12.897 5.964 c -1.98 3.198 -3.144 6.953 -3.144 10.983 v 22.459 H 8.875 V 65.546 z M 81.125 81.227 H 43.403 V 58.768 c 0 -9.345 7.603 -16.947 16.948 -16.947 h 3.827 c 5.219 0 10.084 2.408 13.27 6.419 c -3.06 1.126 -5.252 4.061 -5.252 7.506 v 1.796 c 0 4.414 3.591 8.005 8.005 8.005 h 0.925 V 81.227 z M 86 60.853 c 0 0.382 -0.312 0.693 -0.693 0.693 H 80.2 c -2.208 0 -4.005 -1.797 -4.005 -4.005 v -1.796 c 0 -2.208 1.797 -4.004 4.005 -4.004 h 5.106 c 0.382 0 0.693 0.312 0.693 0.693 V 60.853 z" style="stroke: none; stroke-width: 1; stroke-dasharray: none; stroke-linecap: butt; stroke-linejoin: miter; stroke-miterlimit: 10; fill: rgb(255,255,255); fill-rule: nonzero; opacity: 1;" transform=" matrix(1 0 0 1 0 0) " stroke-linecap="round" />
	<path d="M 27.736 36.333 c 8.701 0 15.78 -7.079 15.78 -15.78 s -7.079 -15.78 -15.78 -15.78 s -15.78 7.079 -15.78 15.78 S 19.035 36.333 27.736 36.333 z M 27.736 8.773 c 6.496 0 11.78 5.285 11.78 11.78 s -5.284 11.78 -11.78 11.78 s -11.78 -5.284 -11.78 -11.78 S 21.24 8.773 27.736 8.773 z" style="stroke: none; stroke-width: 1; stroke-dasharray: none; stroke-linecap: butt; stroke-linejoin: miter; stroke-miterlimit: 10; fill: rgb(255,255,255); fill-rule: nonzero; opacity: 1;" transform=" matrix(1 0 0 1 0 0) " stroke-linecap="round" />
	<path d="M 62.264 36.333 c 8.701 0 15.78 -7.079 15.78 -15.78 s -7.079 -15.78 -15.78 -15.78 s -15.779 7.079 -15.779 15.78 S 53.563 36.333 62.264 36.333 z M 62.264 8.773 c 6.496 0 11.78 5.285 11.78 11.78 s -5.284 11.78 -11.78 11.78 c -6.495 0 -11.779 -5.284 -11.779 -11.78 S 55.769 8.773 62.264 8.773 z" style="stroke: none; stroke-width: 1; stroke-dasharray: none; stroke-linecap: butt; stroke-linejoin: miter; stroke-miterlimit: 10; fill: rgb(255,255,255); fill-rule: nonzero; opacity: 1;" transform=" matrix(1 0 0 1 0 0) " stroke-linecap="round" />
</g>
</svg>