<svg xmlns="http://www.w3.org/2000/svg" xmlns:xlink="http://www.w3.org/1999/xlink" version="1.1" width="256" height="256" viewBox="0 0 256 256" xml:space="preserve">

<defs>
</defs>
<g style="stroke: none; stroke-width: 0; stroke-dasharray: none; stroke-linecap: butt; stroke-linejoin: miter; stroke-miterlimit: 10; fill: none; fill-rule: nonzero; opacity: 1;" transform="translate(1.4065934065934016 1.4065934065934016) scale(2.81 2.81)" >
	<path d="M 89.418 33.95 l -43.5 -33.637 c -0.54 -0.418 -1.295 -0.418 -1.835 0 L 0.583 33.95 c -0.508 0.393 -0.709 1.064 -0.502 1.671 c 0.208 0.607 0.778 1.015 1.419 1.015 h 9.388 V 88.5 c 0 0.828 0.671 1.5 1.5 1.5 h 65.225 c 0.828 0 1.5 -0.672 1.5 -1.5 V 36.637 H 88.5 c 0.642 0 1.212 -0.408 1.42 -1.015 C 90.127 35.014 89.925 34.343 89.418 33.95 z M 59.487 64.448 L 45 81.51 L 30.514 64.449 C 27.603 61.018 26 56.657 26 52.169 c 0 -10.477 8.523 -19 19 -19 s 19 8.523 19 19 C 64 56.658 62.398 61.019 59.487 64.448 z" style="stroke: none; stroke-width: 1; stroke-dasharray: none; stroke-linecap: butt; stroke-linejoin: miter; stroke-miterlimit: 10; fill: rgb(255,255,255); fill-rule: nonzero; opacity: 1;" transform=" matrix(1 0 0 1 0 0) " stroke-linecap="round" />
	<path d="M 45 45.87 c -3.141 0 -5.697 2.556 -5.697 5.697 c 0 3.142 2.556 5.697 5.697 5.697 s 5.697 -2.556 5.697 -5.697 C 50.697 48.426 48.141 45.87 45 45.87 z" style="stroke: none; stroke-width: 1; stroke-dasharray: none; stroke-linecap: butt; stroke-linejoin: miter; stroke-miterlimit: 10; fill: rgb(255,255,255); fill-rule: nonzero; opacity: 1;" transform=" matrix(1 0 0 1 0 0) " stroke-linecap="round" />
</g>
</svg>